<svg width="20" height="20" viewBox="0 0 20 20" fill="none" xmlns="http://www.w3.org/2000/svg">
<path d="M14.1667 10.9417V14.0225H12.3808V11.1475C12.3808 10.4259 12.1225 9.93337 11.4758 9.93337C10.9825 9.93337 10.6883 10.265 10.5592 10.5867C10.5125 10.7017 10.5 10.8617 10.5 11.0217V14.0225H8.71334C8.71334 14.0225 8.73751 9.1542 8.71334 8.65004H10.5V9.41087L10.4883 9.42837H10.5V9.4117C10.7375 9.04504 11.1608 8.52337 12.11 8.52337C13.285 8.52337 14.1667 9.2917 14.1667 10.9417ZM6.84418 6.0592C6.23334 6.0592 5.83334 6.46087 5.83334 6.98754C5.83334 7.5042 6.22168 7.9167 6.82084 7.9167H6.83251C7.45584 7.9167 7.84334 7.50337 7.84334 6.98754C7.83168 6.46087 7.45584 6.0592 6.84418 6.0592ZM5.93918 14.0225H7.72584V8.65004H5.93918V14.0225Z" fill="#025A3B"/>
<path d="M9.99999 16.6666C11.7681 16.6666 13.4638 15.9642 14.714 14.714C15.9643 13.4638 16.6667 11.7681 16.6667 9.99996C16.6667 8.23185 15.9643 6.53616 14.714 5.28591C13.4638 4.03567 11.7681 3.33329 9.99999 3.33329C8.23188 3.33329 6.53619 4.03567 5.28594 5.28591C4.0357 6.53616 3.33332 8.23185 3.33332 9.99996C3.33332 11.7681 4.0357 13.4638 5.28594 14.714C6.53619 15.9642 8.23188 16.6666 9.99999 16.6666V16.6666ZM9.99999 18.3333C5.39749 18.3333 1.66666 14.6025 1.66666 9.99996C1.66666 5.39746 5.39749 1.66663 9.99999 1.66663C14.6025 1.66663 18.3333 5.39746 18.3333 9.99996C18.3333 14.6025 14.6025 18.3333 9.99999 18.3333Z" fill="#025A3B"/>
</svg>
