<svg width="521" height="114" viewBox="0 0 521 114" fill="none" xmlns="http://www.w3.org/2000/svg">
<g clip-path="url(#clip0_1143_167)">
<rect width="521" height="113.457" rx="26.5298" fill="white"/>
<rect x="284.49" y="12.4182" width="220.705" height="88.0563" rx="42.3348" fill="white"/>
<path fill-rule="evenodd" clip-rule="evenodd" d="M494.772 113.559H26.2711C11.7607 113.559 0 101.798 0 87.2881V25.9889C0 11.4785 11.7607 -0.282232 26.2711 -0.282232H494.772C509.283 -0.282232 521.043 11.4785 521.043 25.9889V87.2881C521.043 101.798 509.283 113.559 494.772 113.559ZM320.109 44.7639C323.888 44.7639 328.691 45.9199 332.474 47.9646V36.2521C328.354 34.6102 324.238 33.9797 320.118 33.9797C310.034 33.9797 303.313 39.247 303.313 48.0478C303.313 61.8095 322.211 59.5765 322.211 65.5094C322.211 67.8081 320.214 68.5524 317.442 68.5524C313.322 68.5524 308.007 66.8492 303.834 64.5811V76.4513C308.458 78.4391 313.143 79.271 317.429 79.271C327.767 79.271 334.891 74.1657 334.891 65.216C334.891 50.3903 315.884 53.0525 315.884 47.4567C315.884 45.517 317.504 44.7639 320.109 44.7639ZM359.826 34.8072H350.386L350.378 24.0098L338.24 26.5931L338.183 66.477C338.183 73.8373 343.722 79.271 351.1 79.271C355.163 79.271 358.167 78.5354 359.822 77.6247V67.506C358.233 68.1408 350.386 70.422 350.386 63.0968V45.4076H359.826V34.8072ZM386.514 34.8116C384.858 34.2161 379.048 33.1302 376.136 38.4808L375.357 34.8072H364.608V78.3822H377.034V48.8403C379.972 44.9829 384.933 45.7272 386.514 46.2395V34.8116ZM402.819 18.2389L390.34 20.8923V31.0198L402.819 28.3664V18.2389ZM402.819 34.8072H390.34V78.3822H402.819V34.8072ZM429.642 33.9797C424.769 33.9797 421.62 36.274 419.904 37.8765L419.256 34.8072H408.31L408.314 92.84L420.745 90.1954L420.771 76.1273C422.557 77.4364 425.215 79.271 429.567 79.271C438.46 79.271 446.596 72.1165 446.596 56.3188C446.596 41.8435 438.373 33.9797 429.642 33.9797ZM468.716 33.9797C456.889 33.9797 449.691 44.0327 449.691 56.6954C449.691 71.6874 458.177 79.271 470.288 79.271C476.229 79.271 480.691 77.9224 484.067 76.0484V66.0348C480.678 67.7424 476.79 68.7845 471.855 68.7845C467.008 68.7845 462.739 67.0681 462.183 61.2403H486.523C486.58 60.5704 486.69 57.9652 486.69 56.7611C486.69 44.0283 480.525 33.9797 468.716 33.9797ZM468.637 44.1159C471.689 44.1159 474.929 46.4672 474.929 52.0629H462.074C462.074 46.4628 465.528 44.1159 468.637 44.1159ZM426.669 68.2897C423.753 68.2897 422.015 67.2389 420.806 65.9297L420.732 47.4567C422.028 46.0337 423.818 44.9916 426.669 44.9916C431.218 44.9916 434.349 50.0882 434.349 56.5903C434.349 63.2851 431.266 68.2897 426.669 68.2897Z" fill="#025A3B"/>
<path d="M34.4787 38.0659H45.3097C47.9325 38.0659 50.4166 38.359 52.7617 38.9453C55.1377 39.5316 57.2052 40.4882 58.964 41.8151C60.7229 43.1111 62.1115 44.8082 63.1298 46.9065C64.1789 49.0048 64.7035 51.5506 64.7035 54.5437C64.7035 57.1975 64.1944 59.5426 63.1761 61.5792C62.1886 63.5849 60.8463 65.2821 59.1492 66.6707C57.452 68.0284 55.4926 69.0621 53.2709 69.7718C51.0491 70.4815 48.7194 70.8364 46.2817 70.8364H34.4787V38.0659ZM41.6994 64.1712H45.4485C47.1148 64.1712 48.6577 64.0015 50.0771 63.6621C51.5274 63.3226 52.7771 62.7672 53.8263 61.9958C54.8754 61.1935 55.6932 60.1598 56.2795 58.8946C56.8966 57.5986 57.2052 56.0249 57.2052 54.1734C57.2052 52.5689 56.8966 51.1803 56.2795 50.0077C55.6932 48.8043 54.8909 47.8168 53.8726 47.0454C52.8543 46.274 51.6509 45.7031 50.2623 45.3328C48.9045 44.9317 47.4697 44.7311 45.9577 44.7311H41.6994V64.1712ZM65.5732 59.5889C65.5732 57.7992 65.8972 56.1792 66.5452 54.7289C67.1932 53.2786 68.0726 52.0443 69.1835 51.026C70.3252 49.9768 71.6521 49.1745 73.1641 48.6191C74.707 48.0637 76.3424 47.786 78.0704 47.786C79.7984 47.786 81.4184 48.0637 82.9304 48.6191C84.4733 49.1745 85.8002 49.9768 86.911 51.026C88.0528 52.0443 88.9476 53.2786 89.5956 54.7289C90.2436 56.1792 90.5676 57.7992 90.5676 59.5889C90.5676 61.3786 90.2436 62.9986 89.5956 64.4489C88.9476 65.8992 88.0528 67.1489 86.911 68.1981C85.8002 69.2164 84.4733 70.0033 82.9304 70.5587C81.4184 71.1141 79.7984 71.3918 78.0704 71.3918C76.3424 71.3918 74.707 71.1141 73.1641 70.5587C71.6521 70.0033 70.3252 69.2164 69.1835 68.1981C68.0726 67.1489 67.1932 65.8992 66.5452 64.4489C65.8972 62.9986 65.5732 61.3786 65.5732 59.5889ZM72.5161 59.5889C72.5161 61.2861 72.9944 62.6592 73.951 63.7084C74.9384 64.7575 76.3115 65.2821 78.0704 65.2821C79.8293 65.2821 81.187 64.7575 82.1436 63.7084C83.131 62.6592 83.6247 61.2861 83.6247 59.5889C83.6247 57.8917 83.131 56.5186 82.1436 55.4694C81.187 54.4203 79.8293 53.8957 78.0704 53.8957C76.3115 53.8957 74.9384 54.4203 73.951 55.4694C72.9944 56.5186 72.5161 57.8917 72.5161 59.5889ZM92.3428 48.3414H99.008V51.3963H99.1005C99.3165 50.9643 99.6251 50.5323 100.026 50.1003C100.427 49.6683 100.906 49.2825 101.461 48.9431C102.017 48.6037 102.649 48.326 103.359 48.11C104.069 47.894 104.84 47.786 105.673 47.786C107.432 47.786 108.851 48.0637 109.931 48.6191C111.011 49.1437 111.845 49.8843 112.431 50.8408C113.048 51.7974 113.465 52.9237 113.681 54.2197C113.897 55.5157 114.005 56.9197 114.005 58.4317V70.8364H107.062V59.8203C107.062 59.1723 107.031 58.5089 106.969 57.83C106.938 57.1203 106.799 56.4723 106.553 55.886C106.337 55.2997 105.982 54.8214 105.488 54.4511C105.025 54.0809 104.346 53.8957 103.451 53.8957C102.557 53.8957 101.831 54.0654 101.276 54.4049C100.721 54.7134 100.289 55.1454 99.98 55.7009C99.7023 56.2254 99.5171 56.8272 99.4245 57.506C99.332 58.1849 99.2857 58.8946 99.2857 59.6352V70.8364H92.3428V48.3414ZM130.724 68.013H130.631C129.86 69.2164 128.826 70.0804 127.53 70.605C126.265 71.1295 124.923 71.3918 123.503 71.3918C122.454 71.3918 121.436 71.2375 120.449 70.929C119.492 70.6513 118.643 70.2193 117.903 69.633C117.162 69.0467 116.576 68.3215 116.144 67.4575C115.712 66.5935 115.496 65.5907 115.496 64.4489C115.496 63.1529 115.727 62.0575 116.19 61.1626C116.684 60.2678 117.332 59.5272 118.134 58.9409C118.967 58.3546 119.909 57.9072 120.958 57.5986C122.007 57.2592 123.087 57.0123 124.198 56.858C125.339 56.7037 126.466 56.6112 127.577 56.5803C128.718 56.5494 129.767 56.534 130.724 56.534C130.724 55.2997 130.277 54.3277 129.382 53.618C128.518 52.8774 127.484 52.5071 126.281 52.5071C125.139 52.5071 124.09 52.754 123.133 53.2477C122.207 53.7106 121.374 54.3586 120.634 55.1917L116.931 51.3963C118.227 50.1928 119.739 49.298 121.467 48.7117C123.195 48.0945 124.985 47.786 126.836 47.786C128.873 47.786 130.539 48.0482 131.835 48.5728C133.162 49.0665 134.211 49.8071 134.982 50.7946C135.785 51.782 136.34 53.0009 136.649 54.4511C136.957 55.8706 137.111 57.5215 137.111 59.4038V70.8364H130.724V68.013ZM129.011 60.9775C128.487 60.9775 127.823 61.0083 127.021 61.0701C126.25 61.1009 125.494 61.2243 124.753 61.4403C124.043 61.6563 123.426 61.9803 122.902 62.4123C122.408 62.8443 122.161 63.4461 122.161 64.2175C122.161 65.0506 122.516 65.6678 123.226 66.0689C123.935 66.4701 124.676 66.6707 125.447 66.6707C126.126 66.6707 126.774 66.5781 127.391 66.3929C128.039 66.2078 128.61 65.9455 129.104 65.6061C129.598 65.2667 129.983 64.8346 130.261 64.3101C130.57 63.7855 130.724 63.1684 130.724 62.4586V60.9775H129.011ZM154.474 53.8957H148.364V61.3941C148.364 62.0112 148.395 62.5821 148.457 63.1066C148.518 63.6004 148.657 64.0324 148.873 64.4026C149.089 64.7729 149.413 65.0661 149.845 65.2821C150.308 65.4672 150.91 65.5598 151.65 65.5598C152.021 65.5598 152.499 65.5289 153.085 65.4672C153.702 65.3747 154.165 65.1895 154.474 64.9118V70.6975C153.702 70.9753 152.9 71.1604 152.067 71.253C151.234 71.3455 150.416 71.3918 149.614 71.3918C148.441 71.3918 147.361 71.2684 146.374 71.0215C145.386 70.7747 144.522 70.389 143.782 69.8644C143.041 69.309 142.455 68.5992 142.023 67.7352C141.622 66.8712 141.421 65.8221 141.421 64.5878V53.8957H136.978V48.3414H141.421V41.6762H148.364V48.3414H154.474V53.8957ZM176.979 66.9484C175.868 68.3678 174.464 69.4633 172.767 70.2347C171.07 71.0061 169.311 71.3918 167.491 71.3918C165.763 71.3918 164.127 71.1141 162.584 70.5587C161.072 70.0033 159.745 69.2164 158.604 68.1981C157.493 67.1489 156.613 65.8992 155.965 64.4489C155.317 62.9986 154.993 61.3786 154.993 59.5889C154.993 57.7992 155.317 56.1792 155.965 54.7289C156.613 53.2786 157.493 52.0443 158.604 51.026C159.745 49.9768 161.072 49.1745 162.584 48.6191C164.127 48.0637 165.763 47.786 167.491 47.786C169.095 47.786 170.546 48.0637 171.842 48.6191C173.168 49.1745 174.279 49.9768 175.174 51.026C176.1 52.0443 176.81 53.2786 177.303 54.7289C177.797 56.1792 178.044 57.7992 178.044 59.5889V61.7643H161.936C162.214 63.0912 162.816 64.1558 163.742 64.9581C164.667 65.7295 165.809 66.1152 167.167 66.1152C168.308 66.1152 169.265 65.8684 170.036 65.3747C170.839 64.8501 171.533 64.1866 172.119 63.3844L176.979 66.9484ZM171.101 57.0432C171.132 55.8706 170.746 54.8677 169.944 54.0346C169.142 53.2014 168.108 52.7849 166.843 52.7849C166.071 52.7849 165.392 52.9083 164.806 53.1551C164.22 53.402 163.711 53.726 163.279 54.1271C162.877 54.4974 162.553 54.9449 162.307 55.4694C162.091 55.9632 161.967 56.4877 161.936 57.0432H171.101ZM188.649 48.3414H196.055L200.637 62.4586H200.729L204.571 48.3414H212.162L216.328 62.4586H216.42L220.632 48.3414H227.668L219.66 70.8364H212.81L208.135 55.886H208.043L203.877 70.8364H196.888L188.649 48.3414ZM227.668 48.3414H234.611V70.8364H227.668V48.3414ZM227.113 41.2596C227.113 40.1488 227.499 39.2076 228.27 38.4362C229.072 37.6339 230.029 37.2327 231.14 37.2327C232.251 37.2327 233.192 37.6339 233.963 38.4362C234.765 39.2076 235.167 40.1488 235.167 41.2596C235.167 42.3705 234.765 43.3271 233.963 44.1294C233.192 44.9008 232.251 45.2865 231.14 45.2865C230.029 45.2865 229.072 44.9008 228.27 44.1294C227.499 43.3271 227.113 42.3705 227.113 41.2596ZM252.606 53.8957H246.496V61.3941C246.496 62.0112 246.527 62.5821 246.588 63.1066C246.65 63.6004 246.789 64.0324 247.005 64.4026C247.221 64.7729 247.545 65.0661 247.977 65.2821C248.44 65.4672 249.042 65.5598 249.782 65.5598C250.152 65.5598 250.631 65.5289 251.217 65.4672C251.834 65.3747 252.297 65.1895 252.606 64.9118V70.6975C251.834 70.9753 251.032 71.1604 250.199 71.253C249.366 71.3455 248.548 71.3918 247.746 71.3918C246.573 71.3918 245.493 71.2684 244.506 71.0215C243.518 70.7747 242.654 70.389 241.914 69.8644C241.173 69.309 240.587 68.5992 240.155 67.7352C239.754 66.8712 239.553 65.8221 239.553 64.5878V53.8957H235.11V48.3414H239.553V41.6762H246.496V48.3414H252.606V53.8957ZM260.762 35.8442V51.3963H260.855C261.009 50.9643 261.272 50.5323 261.642 50.1003C262.012 49.6683 262.46 49.2825 262.984 48.9431C263.509 48.6037 264.126 48.326 264.836 48.11C265.545 47.894 266.317 47.786 267.15 47.786C268.909 47.786 270.328 48.0637 271.408 48.6191C272.488 49.1437 273.321 49.8843 273.908 50.8408C274.525 51.7974 274.941 52.9237 275.157 54.2197C275.373 55.5157 275.481 56.9197 275.481 58.4317V70.8364H268.538V59.8203C268.538 59.1723 268.508 58.5089 268.446 57.83C268.415 57.1203 268.276 56.4723 268.029 55.886C267.813 55.2997 267.458 54.8214 266.965 54.4511C266.502 54.0809 265.823 53.8957 264.928 53.8957C264.033 53.8957 263.308 54.0654 262.753 54.4049C262.197 54.7134 261.765 55.1454 261.457 55.7009C261.179 56.2254 260.994 56.8272 260.901 57.506C260.809 58.1849 260.762 58.8946 260.762 59.6352V70.8364H253.82V35.8442H260.762Z" fill="white"/>
</g>
<defs>
<clipPath id="clip0_1143_167">
<rect width="521" height="113.457" rx="26.5298" fill="white"/>
</clipPath>
</defs>
</svg>
