<svg width="20" height="20" viewBox="0 0 20 20" fill="none" xmlns="http://www.w3.org/2000/svg">
<path d="M9.99999 16.6666C11.7681 16.6666 13.4638 15.9642 14.714 14.714C15.9643 13.4638 16.6667 11.7681 16.6667 9.99996C16.6667 8.23185 15.9643 6.53616 14.714 5.28591C13.4638 4.03567 11.7681 3.33329 9.99999 3.33329C8.23188 3.33329 6.53619 4.03567 5.28594 5.28591C4.0357 6.53616 3.33332 8.23185 3.33332 9.99996C3.33332 11.7681 4.0357 13.4638 5.28594 14.714C6.53619 15.9642 8.23188 16.6666 9.99999 16.6666ZM9.99999 18.3333C5.39749 18.3333 1.66666 14.6025 1.66666 9.99996C1.66666 5.39746 5.39749 1.66663 9.99999 1.66663C14.6025 1.66663 18.3333 5.39746 18.3333 9.99996C18.3333 14.6025 14.6025 18.3333 9.99999 18.3333Z" fill="#025A3B"/>
<path d="M14.1667 7.4558C13.86 7.58913 13.5308 7.6808 13.185 7.7208C13.5383 7.51247 13.8083 7.18247 13.9367 6.78997C13.6 6.98619 13.2326 7.12424 12.85 7.1983C12.6891 7.02961 12.4955 6.89547 12.281 6.80407C12.0665 6.71266 11.8357 6.6659 11.6025 6.66663C10.6583 6.66663 9.89334 7.4208 9.89334 8.34997C9.89334 8.48164 9.90834 8.60997 9.93751 8.7333C9.26028 8.70114 8.59719 8.52817 7.99055 8.22542C7.38391 7.92268 6.84703 7.4968 6.41418 6.97497C6.26215 7.23089 6.1821 7.52313 6.18251 7.8208C6.18251 8.40413 6.48501 8.9208 6.94334 9.22163C6.67205 9.21313 6.40656 9.1409 6.16834 9.0108V9.03164C6.17092 9.42285 6.30901 9.80108 6.55911 10.1019C6.80921 10.4028 7.15585 10.6076 7.54001 10.6816C7.28781 10.7483 7.02392 10.758 6.76751 10.71C6.87928 11.0465 7.09307 11.3399 7.3792 11.5494C7.66532 11.759 8.00958 11.8742 8.36418 11.8791C7.75581 12.3479 7.00888 12.6012 6.24084 12.5991C6.10334 12.5991 5.96751 12.5908 5.83334 12.5758C6.61707 13.0719 7.52581 13.3346 8.45334 13.3333C11.5983 13.3333 13.3175 10.7683 13.3175 8.5433L13.3117 8.32497C13.6469 8.08937 13.9366 7.79487 14.1667 7.4558Z" fill="#025A3B"/>
</svg>
