<svg width="20" height="20" viewBox="0 0 20 20" fill="none" xmlns="http://www.w3.org/2000/svg">
<path d="M9.99999 16.6666C11.7681 16.6666 13.4638 15.9642 14.714 14.714C15.9643 13.4638 16.6667 11.7681 16.6667 9.99996C16.6667 8.23185 15.9643 6.53616 14.714 5.28591C13.4638 4.03567 11.7681 3.33329 9.99999 3.33329C8.23188 3.33329 6.53619 4.03567 5.28594 5.28591C4.0357 6.53616 3.33332 8.23185 3.33332 9.99996C3.33332 11.7681 4.0357 13.4638 5.28594 14.714C6.53619 15.9642 8.23188 16.6666 9.99999 16.6666ZM9.99999 18.3333C5.39749 18.3333 1.66666 14.6025 1.66666 9.99996C1.66666 5.39746 5.39749 1.66663 9.99999 1.66663C14.6025 1.66663 18.3333 5.39746 18.3333 9.99996C18.3333 14.6025 14.6025 18.3333 9.99999 18.3333Z" fill="#025A3B"/>
<path d="M12.4358 7.10498H7.56418C6.60834 7.10498 5.83334 7.87165 5.83334 8.81665V11.225C5.83334 12.1708 6.60834 12.9366 7.56418 12.9366H12.4358C13.3917 12.9366 14.1667 12.17 14.1667 11.225V8.81665C14.1667 7.87081 13.3917 7.10498 12.4358 7.10498ZM11.2658 10.1383L8.98668 11.2133C8.97273 11.2199 8.95735 11.2229 8.94196 11.2219C8.92657 11.221 8.91166 11.2162 8.89862 11.208C8.88557 11.1997 8.87481 11.1884 8.86734 11.1749C8.85986 11.1614 8.85591 11.1462 8.85584 11.1308V8.91415C8.85598 8.89853 8.86011 8.8832 8.86784 8.86963C8.87556 8.85605 8.88663 8.84467 8.89998 8.83658C8.91334 8.82848 8.92855 8.82393 8.94416 8.82336C8.95977 8.82279 8.97526 8.82621 8.98918 8.83331L11.2675 9.97498C11.2825 9.98281 11.295 9.99463 11.3037 10.0091C11.3124 10.0236 11.3169 10.0403 11.3167 10.0572C11.3165 10.0741 11.3117 10.0906 11.3027 10.1049C11.2937 10.1192 11.281 10.1308 11.2658 10.1383Z" fill="#025A3B"/>
</svg>
